<?xml version="1.0" encoding="UTF-8"?>
<svg id="Capa_2" data-name="Capa 2" xmlns="http://www.w3.org/2000/svg" viewBox="0 0 76.59 74.58">
  <defs>
    <style>
      .cls-1 {
        fill: #9092c7;
      }

      .cls-2 {
        fill: #21244d;
      }
    </style>
  </defs>
  <g id="Capa_1-2" data-name="Capa 1">
    <g>
      <rect class="cls-2" width="76.59" height="74.58" rx="13.73" ry="13.73"/>
      <g>
        <path class="cls-1" d="m25.17,19.91c1.25,0,2.49,0,3.74,0,.58,0,.58,0,.77.53,3.77,10.56,7.54,21.12,11.32,31.68.03.08.06.16.07.24.07.33-.02.44-.36.45-.75,0-1.51,0-2.26,0-1.34,0-2.68,0-4.03,0-.57,0-.62-.03-.8-.56-.79-2.31-1.59-4.62-2.37-6.94-.09-.28-.22-.39-.53-.39-3.65.01-7.31.01-10.96,0-.29,0-.41.09-.5.37-.73,2.28-1.47,4.56-2.2,6.84-.19.59-.28.65-.89.65-1.79,0-3.57,0-5.36,0-.74,0-.82-.11-.58-.79,2.37-6.77,4.74-13.53,7.1-20.3,1.05-3.02,2.12-6.03,3.13-9.06.23-.69.24-1.45.32-2.18.05-.51.05-.53.54-.53,1.28,0,2.56,0,3.85,0Zm-3.9,18.77h7.92c-1.36-4.36-2.7-8.7-4.02-12.92-1.28,4.23-2.59,8.57-3.9,12.92Z"/>
        <path class="cls-1" d="m63.91,41.17c.3,0,1.37,0,1.37,0,0,0,0-2.62-.05-3.49-.07-1.47-.3-2.93-.78-4.3-.74-2.13-2.14-3.97-4.12-5.11-1.06-.61-2.23-1.02-3.43-1.24-4.28-.77-9,.26-11.69,3.87-2.15,2.89-2.78,6.69-2.77,10.21,0,0,.02,10.79,11.49,11.65,0,0,5.02.38,9.13-1.41v-5.45s-12.75,3.88-13.59-4.78c1.96,0,3.92.01,5.88.02,2.86,0,5.72.02,8.58.03Zm-9.77-9.33c2.59,0,4.68,2.09,4.68,4.67h-9.37c0-2.58,2.1-4.67,4.68-4.67Z"/>
      </g>
    </g>
  </g>
</svg>