<?xml version="1.0" encoding="UTF-8"?>
<svg id="Capa_2" data-name="Capa 2" xmlns="http://www.w3.org/2000/svg" viewBox="0 0 195.03 123.45">
  <defs>
    <style>
      .cls-1 {
        fill: #c74634;
        fill-rule: evenodd;
      }
    </style>
  </defs>
  <g id="oracle">
    <path id="Layer" class="cls-1" d="m63.27,123.43c-16.63.43-32.73-5.88-44.64-17.5C6.72,94.32,0,78.38,0,61.73S6.72,29.14,18.63,17.52C30.55,5.9,46.64-.41,63.27.02h71.68c16.08.42,31.35,7.1,42.57,18.63,11.22,11.53,17.5,26.98,17.5,43.08s-6.28,31.55-17.5,43.08c-11.22,11.53-26.5,18.21-42.57,18.63H63.27Zm70.06-21.72c10.81.34,21.3-3.71,29.06-11.23,7.76-7.53,12.15-17.88,12.15-28.7s-4.39-21.18-12.15-28.71c-7.77-7.53-18.26-11.58-29.06-11.23h-68.48c-10.36.33-20.19,4.69-27.4,12.14-7.21,7.45-11.25,17.42-11.25,27.8s4.03,20.34,11.25,27.8c7.21,7.45,17.03,11.8,27.4,12.14h68.48Z"/>
  </g>
</svg>