<?xml version="1.0" encoding="UTF-8"?>
<svg id="Capa_2" data-name="Capa 2" xmlns="http://www.w3.org/2000/svg" viewBox="0 0 121.3 126.44">
  <defs>
    <style>
      .cls-1 {
        fill-rule: evenodd;
      }
    </style>
  </defs>
  <g id="nodejs">
    <path class="cls-1" d="m20.92,22.17c3.93,3.2,5.41,2.95,12.79,2.46l69.62-4.18c1.48,0,.25-1.47-.24-1.72l-11.56-8.36c-2.22-1.72-5.17-3.69-10.82-3.2L13.29,12.09c-2.46.24-2.95,1.47-1.97,2.46l9.6,7.62Zm4.18,16.23v73.25c0,3.94,1.97,5.41,6.4,5.17l76.51-4.43c4.43-.24,4.92-2.95,4.92-6.15V33.47c0-3.19-1.23-4.91-3.94-4.67l-79.96,4.67c-2.95.25-3.94,1.72-3.94,4.92h0Zm75.54,3.93c.49,2.21,0,4.43-2.22,4.68l-3.69.73v54.08c-3.2,1.72-6.15,2.7-8.61,2.7-3.94,0-4.92-1.23-7.87-4.92l-24.11-37.86v36.63l7.63,1.72s0,4.42-6.16,4.42l-16.97.98c-.49-.98,0-3.44,1.72-3.93l4.43-1.23v-48.43l-6.15-.49c-.49-2.21.74-5.41,4.18-5.66l18.21-1.23,25.1,38.35v-33.93l-6.4-.73c-.49-2.71,1.47-4.67,3.93-4.92l16.98-.99ZM7.62,5.45L77.75.29c8.61-.74,10.83-.24,16.24,3.69l22.38,15.73c3.69,2.71,4.92,3.44,4.92,6.39v86.29c0,5.41-1.97,8.61-8.86,9.1l-81.43,4.92c-5.17.25-7.63-.49-10.34-3.93l-16.48-21.39c-2.95-3.94-4.18-6.88-4.18-10.33V14.05C0,9.63,1.97,5.94,7.62,5.45Z"/>
  </g>
</svg>