<?xml version="1.0" encoding="UTF-8"?>
<svg id="Capa_2" data-name="Capa 2" xmlns="http://www.w3.org/2000/svg" viewBox="0 0 126.36 45.96">
  <defs>
    <style>
      .cls-1 {
        fill-rule: evenodd;
      }
    </style>
  </defs>
  <g id="nodejs">
    <g>
      <path d="m57.44,31.35v-12.12h.21l8.73,12.12h2.75V13.54h-3.05v12.09h-.21l-8.73-12.09h-2.75v17.8h3.05Zm20.34.27c4.03,0,6.5-2.63,6.5-7.02s-2.47-7.02-6.5-7.02-6.5,2.66-6.5,7.02c.03,4.4,2.47,7.02,6.5,7.02Zm0-2.57c-2.14,0-3.36-1.62-3.36-4.46s1.22-4.46,3.36-4.46,3.36,1.65,3.36,4.46-1.22,4.46-3.36,4.46Zm9.28-14.5v3.39h-2.14v2.44h2.14v7.36c0,2.63,1.22,3.66,4.34,3.66.58,0,1.16-.06,1.62-.15v-2.38c-.37.03-.61.06-1.04.06-1.28,0-1.86-.58-1.86-1.92v-6.63h2.9v-2.44h-2.9v-3.39h-3.05Zm7.79,16.8h3.05v-13.5h-3.05v13.5Zm1.53-15.73c1.01,0,1.83-.82,1.83-1.83s-.82-1.86-1.83-1.86-1.83.82-1.83,1.86.82,1.83,1.83,1.83h0Zm9.89,16c4.03,0,6.5-2.63,6.5-7.02s-2.47-7.02-6.5-7.02-6.5,2.66-6.5,7.02c0,4.4,2.44,7.02,6.5,7.02Zm0-2.57c-2.14,0-3.36-1.62-3.36-4.46s1.22-4.46,3.36-4.46,3.36,1.65,3.36,4.46c-.03,2.84-1.25,4.46-3.36,4.46Zm8.31,2.29h3.05v-7.85c0-1.98,1.16-3.24,2.96-3.24s2.72,1.04,2.72,3.08v8h3.05v-8.73c0-3.24-1.65-5.04-4.64-5.04-2.02,0-3.36.92-4,2.44h-.21v-2.17h-2.96s.03,13.5.03,13.5Z"/>
      <path class="cls-1" d="m7.6,8.05c1.44,1.16,1.95,1.07,4.64.89l25.31-1.53c.55,0,.09-.55-.09-.61l-4.21-3.02c-.79-.61-1.89-1.34-3.94-1.16l-24.49,1.8c-.89.09-1.07.55-.7.89l3.48,2.75Zm1.53,5.89v26.63c0,1.44.7,1.95,2.32,1.86l27.82-1.62c1.62-.09,1.8-1.07,1.8-2.23V12.14c0-1.16-.46-1.8-1.44-1.71l-29.07,1.71c-1.07.09-1.44.64-1.44,1.8h0Zm27.45,1.44c.18.79,0,1.62-.79,1.71l-1.34.27v19.67c-1.16.61-2.23.98-3.15.98-1.44,0-1.8-.46-2.87-1.8l-8.76-13.77v13.31l2.78.61s0,1.62-2.23,1.62l-6.17.37c-.18-.37,0-1.25.61-1.44l1.62-.46v-17.59l-2.23-.18c-.18-.79.27-1.95,1.53-2.05l6.63-.46,9.13,13.92v-12.31l-2.32-.27c-.18-.98.55-1.71,1.44-1.8l6.14-.34ZM2.78,1.97L28.28.11c3.11-.27,3.94-.09,5.89,1.34l8.12,5.71c1.34.98,1.8,1.25,1.8,2.32v31.36c0,1.95-.7,3.11-3.21,3.3l-29.59,1.8c-1.89.09-2.78-.18-3.76-1.44l-6.02-7.79c-1.07-1.44-1.53-2.5-1.53-3.76V5.09c0-1.62.73-2.93,2.78-3.11Z"/>
    </g>
  </g>
</svg>