<?xml version="1.0" encoding="UTF-8"?>
<svg id="Capa_2" data-name="Capa 2" xmlns="http://www.w3.org/2000/svg" xmlns:xlink="http://www.w3.org/1999/xlink" viewBox="0 0 124.66 124.66">
  <defs>
    <style>
      .cls-1 {
        fill: #fff;
      }

      .cls-2 {
        fill: url(#Degradado_sin_nombre_6);
      }

      .cls-3 {
        fill: url(#Degradado_sin_nombre_3);
      }

      .cls-4 {
        fill: url(#Degradado_sin_nombre_2);
      }

      .cls-5 {
        fill: url(#Degradado_sin_nombre_4);
      }
    </style>
    <linearGradient id="Degradado_sin_nombre_6" data-name="Degradado sin nombre 6" x1="1.42" y1="496.59" x2="59.3" y2="496.59" gradientTransform="translate(0 568) scale(1 -1)" gradientUnits="userSpaceOnUse">
      <stop offset=".26" stop-color="#f97a12"/>
      <stop offset=".46" stop-color="#b07b58"/>
      <stop offset=".72" stop-color="#577bae"/>
      <stop offset=".91" stop-color="#1e7ce5"/>
      <stop offset="1" stop-color="#087cfa"/>
    </linearGradient>
    <linearGradient id="Degradado_sin_nombre_2" data-name="Degradado sin nombre 2" x1="45.87" y1="523.65" x2="141.42" y2="470.78" gradientTransform="translate(0 568) scale(1 -1)" gradientUnits="userSpaceOnUse">
      <stop offset="0" stop-color="#f97a12"/>
      <stop offset=".07" stop-color="#cb7a3e"/>
      <stop offset=".15" stop-color="#9e7b6a"/>
      <stop offset=".24" stop-color="#757b91"/>
      <stop offset=".33" stop-color="#537bb1"/>
      <stop offset=".43" stop-color="#387ccc"/>
      <stop offset=".54" stop-color="#237ce0"/>
      <stop offset=".66" stop-color="#147cef"/>
      <stop offset=".79" stop-color="#0b7cf7"/>
      <stop offset="1" stop-color="#087cfa"/>
    </linearGradient>
    <linearGradient id="Degradado_sin_nombre_3" data-name="Degradado sin nombre 3" x1="112.61" y1="491.58" x2="86.01" y2="571.07" gradientTransform="translate(0 568) scale(1 -1)" gradientUnits="userSpaceOnUse">
      <stop offset="0" stop-color="#fe315d"/>
      <stop offset=".08" stop-color="#cb417e"/>
      <stop offset=".16" stop-color="#9e4e9b"/>
      <stop offset=".25" stop-color="#755bb4"/>
      <stop offset=".34" stop-color="#5365ca"/>
      <stop offset=".44" stop-color="#386ddb"/>
      <stop offset=".54" stop-color="#2374e9"/>
      <stop offset=".66" stop-color="#1478f3"/>
      <stop offset=".79" stop-color="#0b7bf8"/>
      <stop offset="1" stop-color="#087cfa"/>
    </linearGradient>
    <linearGradient id="Degradado_sin_nombre_4" data-name="Degradado sin nombre 4" x1="19.04" y1="538.63" x2="98.83" y2="406.66" gradientTransform="translate(0 568) scale(1 -1)" gradientUnits="userSpaceOnUse">
      <stop offset="0" stop-color="#fe315d"/>
      <stop offset=".04" stop-color="#f63462"/>
      <stop offset=".1" stop-color="#df3a71"/>
      <stop offset=".17" stop-color="#c24383"/>
      <stop offset=".29" stop-color="#ad4a91"/>
      <stop offset=".55" stop-color="#755bb4"/>
      <stop offset=".92" stop-color="#1d76ed"/>
      <stop offset="1" stop-color="#087cfa"/>
    </linearGradient>
  </defs>
  <g id="intelij">
    <g>
      <g>
        <polygon class="cls-2" points="31.52 97.23 1.42 73.37 16.38 45.59 59.3 62.33 31.52 97.23"/>
        <polygon class="cls-4" points="124.66 33.3 122.34 105.43 74.44 124.66 45.59 106.14 87.8 62.33 69.28 21.9 85.84 1.96 124.66 33.3"/>
        <polygon class="cls-3" points="124.66 33.3 86.73 78.18 69.28 21.9 85.84 1.96 124.66 33.3"/>
        <polygon class="cls-5" points="60.01 103.47 9.97 121.63 17.99 93.49 28.49 58.95 0 49.33 17.99 0 57.17 4.81 95.63 48.8 60.01 103.47"/>
      </g>
      <g>
        <rect x="24.4" y="24.04" width="76.93" height="76.93"/>
        <rect class="cls-1" x="31.52" y="86.55" width="28.85" height="4.81"/>
        <polygon class="cls-1" points="52.36 39.89 52.36 34.01 36.33 34.01 36.33 39.89 40.96 39.89 40.96 60.01 36.33 60.01 36.33 65.89 52.36 65.89 52.36 60.01 47.9 60.01 47.9 39.89 52.36 39.89"/>
        <path class="cls-1" d="m67.67,66.43c-2.49,0-4.63-.53-6.23-1.42s-3.03-2.14-4.1-3.38l4.45-4.99c.89,1.07,1.78,1.78,2.67,2.32s1.96.89,3.03.89c1.25,0,2.32-.36,3.21-1.25.71-.89,1.07-2.14,1.07-4.1v-20.48h7.12v20.84c0,1.96-.18,3.56-.71,4.99-.53,1.42-1.25,2.49-2.32,3.56-.89.89-2.14,1.78-3.56,2.14-1.42.53-2.85.89-4.63.89"/>
      </g>
    </g>
  </g>
</svg>