<?xml version="1.0" encoding="UTF-8"?>
<svg id="Capa_2" data-name="Capa 2" xmlns="http://www.w3.org/2000/svg" xmlns:xlink="http://www.w3.org/1999/xlink" viewBox="0 0 125.04 21.41">
  <defs>
    <style>
      .cls-1 {
        fill: #947ab6;
      }

      .cls-2 {
        fill: url(#Degradado_sin_nombre_2);
        fill-rule: evenodd;
      }

      .cls-3 {
        fill: #6d4f9c;
      }

      .cls-4 {
        isolation: isolate;
      }

      .cls-5 {
        fill: #512884;
      }

      .cls-6 {
        fill: #5f4092;
      }

      .cls-7 {
        fill: #a48ec0;
      }

      .cls-8 {
        opacity: .25;
      }
    </style>
    <linearGradient id="Degradado_sin_nombre_2" data-name="Degradado sin nombre 2" x1="10.76" y1="-180.84" x2="10.76" y2="-202.25" gradientTransform="translate(0 -180.84) scale(1 -1)" gradientUnits="userSpaceOnUse">
      <stop offset="0" stop-color="#fff"/>
      <stop offset="1" stop-color="#fff" stop-opacity="0"/>
    </linearGradient>
  </defs>
  <g id="Visual_Studio" data-name="Visual Studio">
    <g>
      <g class="cls-4">
        <path class="cls-7" d="m39.05,4.22l-4.79,12.94h-1.67l-4.69-12.94h1.69l3.58,10.26c.11.33.2.71.26,1.15h.04c.05-.36.15-.75.3-1.16l3.66-10.25h1.63Z"/>
        <path class="cls-7" d="m40.92,5.58c-.26,0-.49-.09-.68-.27-.19-.18-.28-.41-.28-.69s.09-.51.28-.69c.19-.18.41-.28.68-.28s.5.09.69.28c.19.18.28.41.28.69s-.1.49-.28.68c-.19.19-.42.28-.69.28Zm.72,11.59h-1.48V7.92h1.48v9.24Z"/>
        <path class="cls-7" d="m43.52,16.83v-1.59c.81.6,1.69.89,2.66.89,1.3,0,1.95-.43,1.95-1.3,0-.25-.06-.46-.17-.63-.11-.17-.26-.32-.45-.46-.19-.13-.41-.25-.67-.36-.26-.11-.53-.22-.83-.33-.41-.16-.77-.33-1.08-.49-.31-.17-.57-.35-.78-.56-.21-.21-.36-.44-.47-.71-.1-.26-.16-.57-.16-.93,0-.43.1-.82.3-1.15.2-.33.46-.61.79-.84.33-.22.71-.39,1.13-.51.42-.11.86-.17,1.31-.17.8,0,1.52.14,2.15.41v1.5c-.68-.45-1.46-.67-2.35-.67-.28,0-.53.03-.75.09-.22.06-.41.15-.57.27-.16.11-.28.25-.37.41-.09.16-.13.34-.13.53,0,.24.04.44.13.61.09.16.21.31.38.43.17.13.37.24.61.34.24.1.51.21.82.33.41.16.78.32,1.1.48.32.17.6.35.83.56.23.21.4.45.53.72.12.27.18.59.18.97,0,.46-.1.85-.3,1.19-.2.34-.47.62-.81.84-.34.22-.73.39-1.16.5-.44.11-.9.16-1.38.16-.95,0-1.78-.18-2.47-.55Z"/>
        <path class="cls-7" d="m58.85,17.17h-1.48v-1.46h-.04c-.61,1.12-1.56,1.68-2.85,1.68-2.2,0-3.3-1.31-3.3-3.94v-5.53h1.47v5.29c0,1.95.75,2.92,2.24,2.92.72,0,1.32-.27,1.78-.8.47-.53.7-1.23.7-2.09v-5.33h1.48v9.24Z"/>
        <path class="cls-7" d="m67.9,17.17h-1.48v-1.44h-.04c-.64,1.11-1.59,1.66-2.84,1.66-.92,0-1.64-.24-2.16-.73-.52-.49-.78-1.13-.78-1.94,0-1.73,1.02-2.73,3.05-3.01l2.77-.39c0-1.57-.63-2.36-1.9-2.36-1.11,0-2.12.38-3.01,1.14v-1.52c.91-.58,1.96-.87,3.14-.87,2.17,0,3.26,1.15,3.26,3.45v6.01Zm-1.48-4.68l-2.23.31c-.69.1-1.2.27-1.55.51-.35.24-.52.68-.52,1.3,0,.45.16.82.48,1.11.32.29.75.43,1.29.43.73,0,1.34-.26,1.82-.77.48-.51.72-1.17.72-1.95v-.92Z"/>
        <path class="cls-7" d="m71.61,17.17h-1.48V3.48h1.48v13.68Z"/>
      </g>
      <g class="cls-4">
        <path class="cls-7" d="m76.24,16.64v-1.79c.2.18.45.34.73.49.29.14.59.27.9.37.32.1.63.18.95.23.32.05.61.08.88.08.93,0,1.63-.17,2.09-.52.46-.35.69-.84.69-1.49,0-.35-.08-.65-.23-.91-.15-.26-.37-.5-.64-.71-.27-.21-.59-.42-.96-.61-.37-.2-.77-.4-1.2-.62-.45-.23-.87-.46-1.26-.7-.39-.24-.73-.49-1.02-.78-.29-.28-.52-.6-.68-.96-.17-.36-.25-.78-.25-1.26,0-.59.13-1.1.39-1.54.26-.44.6-.8,1.02-1.08.42-.28.9-.49,1.44-.63.54-.14,1.09-.21,1.65-.21,1.28,0,2.21.15,2.79.46v1.71c-.76-.53-1.75-.79-2.94-.79-.33,0-.66.04-.99.1-.33.07-.63.18-.88.34-.26.16-.47.36-.63.6-.16.25-.24.55-.24.9,0,.33.06.62.19.86.12.24.31.46.55.66.24.2.53.39.88.58.35.19.74.39,1.2.61.46.23.9.47,1.32.72.42.25.78.53,1.09.84.31.31.56.65.74,1.02.18.37.28.8.28,1.28,0,.64-.13,1.18-.37,1.62-.25.44-.59.8-1.01,1.08-.42.28-.91.48-1.47.6-.55.12-1.14.19-1.75.19-.21,0-.46-.02-.76-.05-.3-.03-.61-.08-.92-.14-.31-.06-.61-.14-.89-.23-.28-.09-.5-.2-.67-.31Z"/>
        <path class="cls-7" d="m89.88,17.08c-.35.19-.81.29-1.38.29-1.62,0-2.43-.9-2.43-2.71v-5.47h-1.59v-1.26h1.59v-2.26l1.48-.48v2.73h2.33v1.26h-2.33v5.21c0,.62.1,1.06.32,1.33.21.27.56.4,1.05.4.37,0,.7-.1.97-.31v1.26Z"/>
        <path class="cls-7" d="m99.05,17.17h-1.48v-1.46h-.04c-.61,1.12-1.56,1.68-2.85,1.68-2.2,0-3.3-1.31-3.3-3.94v-5.53h1.47v5.29c0,1.95.75,2.92,2.24,2.92.72,0,1.32-.27,1.78-.8.47-.53.7-1.23.7-2.09v-5.33h1.48v9.24h0Z"/>
        <path class="cls-7" d="m109.65,17.17h-1.48v-1.57h-.04c-.69,1.19-1.75,1.79-3.18,1.79-1.16,0-2.09-.41-2.79-1.24-.69-.83-1.04-1.95-1.04-3.38,0-1.53.39-2.75,1.16-3.67.77-.92,1.8-1.38,3.08-1.38s2.19.5,2.77,1.5h.04V3.48h1.48v13.68Zm-1.48-4.18v-1.36c0-.75-.25-1.38-.74-1.9-.49-.52-1.12-.78-1.88-.78-.9,0-1.61.33-2.13.99-.52.66-.78,1.58-.78,2.74,0,1.06.25,1.91.74,2.52.5.62,1.16.92,2,.92s1.49-.3,2.01-.89c.51-.6.77-1.35.77-2.26Z"/>
        <path class="cls-7" d="m113.13,5.58c-.26,0-.49-.09-.68-.27-.19-.18-.28-.41-.28-.69s.09-.51.28-.69c.19-.18.41-.28.68-.28s.5.09.69.28c.19.18.28.41.28.69s-.1.49-.28.68c-.19.19-.42.28-.69.28Zm.72,11.59h-1.48V7.92h1.48v9.24Z"/>
        <path class="cls-7" d="m120.44,17.38c-1.37,0-2.46-.43-3.27-1.3-.82-.86-1.22-2.01-1.22-3.43,0-1.55.42-2.77,1.27-3.64.85-.87,2-1.31,3.44-1.31s2.45.42,3.23,1.27c.77.85,1.16,2.03,1.16,3.53s-.42,2.66-1.25,3.54c-.83.89-1.95,1.33-3.35,1.33Zm.11-8.43c-.95,0-1.7.32-2.26.97-.55.65-.83,1.54-.83,2.68s.28,1.96.84,2.59c.56.63,1.31.95,2.25.95s1.69-.31,2.21-.93c.51-.62.77-1.5.77-2.64s-.26-2.05-.77-2.67c-.51-.63-1.25-.94-2.21-.94Z"/>
      </g>
      <g id="Capa_1-2" data-name="Capa 1-2">
        <g>
          <path class="cls-5" d="m3.11,16.85c-.26.22-.62.28-.93.15l-1.63-.68c-.33-.14-.55-.46-.55-.82V5.92c0-.36.22-.68.55-.82l1.63-.67c.31-.13.67-.07.93.15l.37.3c-.22-.16-.53-.11-.69.11-.06.09-.09.19-.09.29v10.85c0,.27.22.5.49.5.1,0,.21-.03.29-.09,0,0-.37.31-.37.31Z"/>
          <path class="cls-6" d="m.55,16.31C.22,16.17,0,15.85,0,15.49v-.07c0,.29.24.52.52.51.14,0,.28-.06.37-.17L14.8.39c.4-.4,1.02-.5,1.53-.26l4.43,2.13c.47.22.76.69.76,1.21v.05c0-.47-.38-.85-.85-.85-.2,0-.39.07-.54.19L3.47,16.53l-.37.31c-.26.22-.62.28-.93.15,0,0-1.63-.68-1.63-.68Z"/>
          <path class="cls-3" d="m.55,5.1C.22,5.24,0,5.56,0,5.92v.07c0-.29.24-.52.52-.51.14,0,.28.06.37.17l13.9,15.37c.4.4,1.02.5,1.53.26l4.43-2.13c.47-.22.76-.69.76-1.21v-.05c0,.47-.38.85-.85.85-.2,0-.39-.07-.54-.19L3.47,4.88l-.37-.31c-.26-.22-.62-.27-.93-.13,0,0-1.63.67-1.63.67Z"/>
          <path class="cls-1" d="m16.32,21.28c-.51.24-1.13.14-1.53-.26.31.31.81.3,1.12,0,.15-.15.23-.35.23-.55V.96c0-.43-.35-.79-.79-.79-.21,0-.41.08-.56.23.4-.4,1.02-.5,1.53-.26l4.43,2.13c.47.22.76.69.76,1.21v14.46c0,.52-.3.99-.76,1.21,0,0-4.43,2.13-4.43,2.13Z"/>
          <g class="cls-8">
            <path class="cls-2" d="m15.44,21.38c.3.07.61.03.88-.1l4.43-2.13c.47-.22.76-.69.76-1.21V3.48c0-.52-.3-.99-.76-1.21L16.32.13c-.31-.15-.67-.17-1-.07-.2.07-.38.18-.52.33l-7.15,7.9-4.17-3.42-.37-.31c-.22-.19-.52-.26-.81-.19-.04,0-.08.02-.12.04l-1.63.68C.24,5.23.03,5.52,0,5.86v9.7c.03.34.24.63.55.76l1.63.67s.08.03.12.04c.28.07.59,0,.81-.19l.37-.3,4.17-3.42,7.15,7.9c.18.18.4.3.65.36Zm.7-15.23l-5.56,4.56,5.56,4.56V6.15Zm-13.45,1.48l2.78,3.08-2.78,3.08v-6.16Z"/>
          </g>
        </g>
      </g>
    </g>
  </g>
</svg>