<?xml version="1.0" encoding="UTF-8"?>
<svg id="Capa_2" data-name="Capa 2" xmlns="http://www.w3.org/2000/svg" xmlns:xlink="http://www.w3.org/1999/xlink" viewBox="0 0 96 95.5">
  <defs>
    <style>
      .cls-1 {
        fill: url(#Adsız_degrade);
        fill-rule: evenodd;
      }

      .cls-2 {
        fill: #947ab6;
      }

      .cls-3 {
        fill: #6d4f9c;
      }

      .cls-4 {
        fill: #512884;
      }

      .cls-5 {
        fill: #5f4092;
      }

      .cls-6 {
        opacity: .25;
      }
    </style>
    <linearGradient id="Adsız_degrade" data-name="Adsız degrade" x1="48" y1="352.25" x2="48" y2="447.75" gradientTransform="translate(0 -352.25)" gradientUnits="userSpaceOnUse">
      <stop offset="0" stop-color="#fff"/>
      <stop offset="1" stop-color="#fff" stop-opacity="0"/>
    </linearGradient>
  </defs>
  <g id="Capa_1-2" data-name="Capa 1">
    <g>
      <path class="cls-4" d="m13.87,75.15c-1.15.98-2.75,1.23-4.14.65l-7.27-3.05c-1.48-.62-2.45-2.06-2.46-3.67V26.42c0-1.61.98-3.05,2.46-3.67l7.27-3c1.39-.58,2.99-.33,4.14.65l1.63,1.35c-.99-.71-2.37-.49-3.08.5-.27.38-.42.83-.42,1.3v48.4c0,1.22.98,2.21,2.2,2.22.46,0,.92-.14,1.3-.42l-1.63,1.4Z"/>
      <path class="cls-5" d="m2.46,72.75c-1.48-.62-2.45-2.06-2.46-3.67v-.33c.01,1.28,1.06,2.3,2.33,2.29.63,0,1.23-.27,1.67-.74L66,1.75c1.8-1.79,4.53-2.25,6.82-1.16l19.78,9.52c2.08,1,3.4,3.1,3.4,5.41v.23c0-2.09-1.7-3.79-3.79-3.79-.87,0-1.72.3-2.4.86L15.5,73.75l-1.63,1.4c-1.15.98-2.75,1.23-4.14.65l-7.27-3.05Z"/>
      <path class="cls-3" d="m2.46,22.75c-1.48.62-2.45,2.06-2.46,3.67v.33c.01-1.28,1.06-2.3,2.33-2.29.63,0,1.23.27,1.67.74l62,68.55c1.8,1.79,4.53,2.25,6.82,1.16l19.78-9.52c2.08-1,3.4-3.1,3.4-5.41v-.23c0,2.09-1.7,3.79-3.79,3.79-.87,0-1.72-.3-2.4-.86L15.5,21.75l-1.63-1.4c-1.16-.96-2.76-1.2-4.14-.6l-7.27,3Z"/>
      <path class="cls-2" d="m72.82,94.91c-2.29,1.09-5.02.63-6.82-1.16,1.38,1.37,3.61,1.36,4.98-.02.65-.66,1.02-1.55,1.02-2.47V4.26c0-1.94-1.56-3.53-3.51-3.53-.93,0-1.83.36-2.49,1.02,1.8-1.79,4.53-2.25,6.82-1.16l19.78,9.51c2.08,1,3.4,3.1,3.4,5.41v64.48c0,2.31-1.32,4.41-3.4,5.41l-19.78,9.51Z"/>
      <g class="cls-6">
        <path class="cls-1" d="m68.89,95.35c1.32.3,2.71.15,3.93-.44l19.78-9.51c2.08-1,3.4-3.1,3.4-5.41V15.51c0-2.31-1.32-4.41-3.4-5.41L72.82.59c-1.4-.67-3.01-.78-4.48-.29-.88.3-1.68.79-2.34,1.45l-31.88,35.26-18.62-15.26-1.63-1.4c-1-.85-2.34-1.16-3.61-.83-.18.04-.36.1-.53.18l-7.27,3.05c-1.39.57-2.34,1.87-2.46,3.37v43.26c.12,1.5,1.07,2.8,2.46,3.37l7.27,3c.17.08.35.14.53.18,1.27.33,2.61.02,3.61-.83l1.63-1.35,18.62-15.26,31.88,35.26c.79.79,1.8,1.35,2.89,1.6Zm3.11-67.92l-24.79,20.32,24.79,20.32V27.43Zm-60,6.59l12.41,13.73-12.41,13.73v-27.46Z"/>
      </g>
    </g>
  </g>
</svg>