<?xml version="1.0" encoding="UTF-8"?>
<svg id="Capa_2" data-name="Capa 2" xmlns="http://www.w3.org/2000/svg" viewBox="0 0 127 124.06">
  <defs>
    <style>
      .cls-1 {
        fill: #470137;
      }

      .cls-2 {
        fill: #ff61f5;
      }
    </style>
  </defs>
  <g id="photosop">
    <g>
      <rect class="cls-1" width="127" height="124.06" rx="22.81" ry="22.81"/>
      <g>
        <polygon class="cls-2" points="51.98 63.76 68.92 91.29 54.64 91.29 44.24 72.24 33.84 91.29 19.56 91.29 36.5 63.76 35.54 62.79 19.56 36.35 33.84 36.35 44.24 56.52 54.64 36.35 68.92 36.35 52.95 62.79 51.98 63.76"/>
        <path class="cls-2" d="m95.26,31.26v17.26h-7.43c-10.44,0-18.9,8.46-18.9,18.9v6.35c0,10.44,8.46,18.9,18.9,18.9h7.43s12.04-.93,12.18-4.55V31.26h-12.18Zm0,51.38h-4.54c-5.7,0-10.31-4.62-10.31-10.31v-3.46c0-5.7,4.62-10.31,10.31-10.31h4.54v24.09Z"/>
      </g>
    </g>
  </g>
</svg>