<?xml version="1.0" encoding="UTF-8"?>
<svg id="Capa_2" data-name="Capa 2" xmlns="http://www.w3.org/2000/svg" viewBox="0 0 76.59 74.82">
  <defs>
    <style>
      .cls-1 {
        fill: #529ed6;
      }

      .cls-2 {
        fill: #132034;
      }
    </style>
  </defs>
  <g id="Capa_1-2" data-name="Capa 1">
    <g>
      <rect class="cls-2" width="76.59" height="74.82" rx="13.76" ry="13.76"/>
      <path class="cls-1" d="m30.04,19.17h-12.48v33.26h7.01v-10.39h5.48c3.16,0,6.02-1.28,8.09-3.35,2.07-2.07,3.35-4.93,3.35-8.09,0-6.32-5.12-11.44-11.44-11.44Zm2.93,15.25c-.98.98-2.33,1.58-3.82,1.58h-4.59v-10.79h4.59c2.98,0,5.4,2.42,5.4,5.4,0,1.49-.6,2.84-1.58,3.82Z"/>
      <path class="cls-1" d="m63.34,44.97c0,2.21-1.03,4.31-2.65,5.79-1.83,1.66-4.37,2.37-6.79,2.55-.29.02-.58.04-.87.04-2.69.05-5.51-.52-7.95-1.64-.03-.01-.05-.02-.08-.04,0-1.96,0-3.92.01-5.88,0,.11,1.94.58,2.18.66,2.22.73,4.86,1.27,7.2.97.49-.06,1-.19,1.38-.5,1.44-1.2-.02-2.68-1.19-3.25-1.27-.62-2.64-1.01-3.94-1.57-1.23-.53-2.41-1.22-3.39-2.13-3.25-3.03-3.12-8.11.19-11.05,1.87-1.66,4.4-2.19,6.85-2.3,2.53-.11,5.08.34,7.42,1.3.09.04.19.08.23.16.04.07.04.16.04.24,0,2,0,4,0,6-.38-.33-.9-.46-1.35-.66-.49-.21-.99-.4-1.5-.57-1.8-.58-4.14-1.11-6-.48-.68.23-1.19.72-1.19,1.47,0,1.17,1.14,1.73,2.08,2.15,1.16.53,2.39.85,3.54,1.38,2.99,1.39,5.78,3.77,5.78,7.34Z"/>
    </g>
  </g>
</svg>